<svg xmlns="http://www.w3.org/2000/svg" viewBox="0 0 240 240" width="240" height="240">
  <rect x="20" y="20" width="200" height="200" rx="30" fill="#2b2e42"></rect>
  <rect x="34" y="34" width="172" height="172" rx="22" fill="#191c2c"></rect>
  <clipPath id="faceClip"><rect x="34" y="34" width="172" height="172" rx="22"></rect></clipPath>
  <g clip-path="url(#faceClip)" stroke="#e9e9ed" fill="none" stroke-linecap="round" opacity="0.09">
    <g stroke-width="3.4">
      <path d="M34 96 L92 88 L152 104 L206 92"></path>
      <path d="M84 34 L96 106 L88 168 L104 206"></path>
      <path d="M162 34 L152 104 L172 158 L206 176"></path>
    </g>
    <g stroke-width="1.8" opacity="0.75">
      <path d="M34 150 L88 168 L136 152 L206 132"></path>
      <path d="M34 60 L84 34"></path>
      <path d="M96 106 L136 152 L206 176"></path>
      <path d="M92 88 L124 34"></path>
      <path d="M136 152 L128 206"></path>
      <path d="M34 190 L74 196 L88 168"></path>
      <path d="M152 104 Q186 116 206 92"></path>
      <path d="M96 106 Q60 118 34 150"></path>
    </g>
  </g>
  <rect x="31.5" y="31.5" width="177" height="177" rx="24" fill="none" stroke="#9184d9" stroke-width="3" opacity="0.55"></rect>
  <path d="M98 56 V156 Q98 172 114 172 H162" fill="none" stroke="#9184d9" stroke-width="22.4" stroke-linecap="round" stroke-linejoin="round"></path>
  <path d="M65.6 131.5 L130.4 84.5" fill="none" stroke="#9184d9" stroke-width="22.4" stroke-linecap="round"></path>
  <circle cx="98" cy="108" r="15.5" fill="#191c2c"></circle>
  <circle cx="162" cy="172" r="26.2" fill="#191c2c"></circle>
  <circle cx="98" cy="108" r="10.5" fill="#e9e9ed"></circle>
  <circle cx="162" cy="172" r="18" fill="none" stroke="#e9e9ed" stroke-width="7.8"></circle>
  <circle cx="162" cy="172" r="9" fill="#4ade80"></circle>
  <path d="M181.3 88.4 A21 21 0 0 0 181.3 57.6" fill="none" stroke="#9184d9" stroke-width="9.8" stroke-linecap="round"></path>
  <path d="M190.2 97.9 A34 34 0 0 0 190.2 48.1" fill="none" stroke="#9184d9" stroke-width="9.8" stroke-linecap="round"></path>
  <circle cx="167" cy="73" r="6" fill="#e9e9ed"></circle>
</svg>